<svg width="26" height="21" viewBox="0 0 26 21" fill="none" xmlns="http://www.w3.org/2000/svg">
<path d="M21.2728 7.19159V3.73963C21.2727 3.43479 21.1479 3.14283 20.9266 2.9272C20.705 2.71141 20.4039 2.5901 20.0905 2.5901H5.90896C5.59574 2.59024 5.29604 2.71154 5.07455 2.9272C4.85306 3.14286 4.72848 3.43466 4.72832 3.73963V7.19159C4.72832 7.82708 4.19864 8.3428 3.54595 8.3428C2.89327 8.3428 2.36358 7.82708 2.36358 7.19159V3.73963C2.36374 2.82431 2.73752 1.94622 3.40227 1.29898C4.06702 0.651744 4.96888 0.287812 5.90896 0.287663H20.0905C21.0305 0.287663 21.9323 0.651963 22.5972 1.29898C23.2619 1.94622 23.6357 2.82431 23.6358 3.73963V7.19159C23.6358 7.82689 23.1076 8.3425 22.4552 8.3428C21.8025 8.3428 21.2728 7.82708 21.2728 7.19159Z" fill="#E16D3E"/>
<path d="M21.2723 11.2189C21.2723 11.6766 21.0854 12.1155 20.7529 12.4392C20.4205 12.7629 19.9697 12.9449 19.4996 12.9449H6.50043C6.03029 12.9449 5.57953 12.7629 5.24709 12.4392C4.91482 12.1155 4.72774 11.6765 4.72774 11.2189V9.4929C4.72759 9.18806 4.60283 8.8961 4.38152 8.68047C4.15989 8.46468 3.85938 8.3428 3.54595 8.3428C3.23273 8.34295 2.93246 8.46482 2.71097 8.68047C2.48947 8.89613 2.36489 9.18793 2.36474 9.4929V15.2473C2.36489 15.5523 2.48947 15.8441 2.71097 16.0597C2.93246 16.2754 3.23215 16.3967 3.54538 16.3968H22.4546C22.7681 16.3968 23.0691 16.2755 23.2908 16.0597C23.5119 15.8441 23.6368 15.552 23.637 15.2473V9.4929C23.6368 9.18819 23.5119 8.89608 23.2908 8.68047C23.0691 8.46468 22.7686 8.3428 22.4552 8.3428C22.1418 8.3428 21.8401 8.46468 21.6185 8.68047C21.3974 8.89608 21.2724 9.18819 21.2723 9.4929V11.2189ZM26 15.2473C25.9998 16.1626 25.6261 17.0407 24.9613 17.6879C24.2965 18.3351 23.3948 18.6993 22.4546 18.6993H3.54538C2.60529 18.6991 1.70343 18.3352 1.03868 17.6879C0.373933 17.0407 0.000152613 16.1626 0 15.2473V9.4929C0.000152781 8.57758 0.373933 7.69949 1.03868 7.05225C1.70343 6.40502 2.60529 6.04108 3.54538 6.04093C4.4854 6.04093 5.38724 6.40523 6.05207 7.05225C6.71682 7.69949 7.0906 8.57758 7.09075 9.4929V10.6441H18.9092V9.4929C18.9094 8.57758 19.2832 7.69949 19.9479 7.05225C20.6128 6.40506 21.5145 6.04093 22.4546 6.04093C23.3948 6.04093 24.2965 6.40506 24.9613 7.05225C25.6261 7.69949 25.9998 8.57758 26 9.4929V15.2473Z" fill="#E16D3E"/>
<path d="M2.36358 19.8488V17.548C2.36358 16.9125 2.89269 16.3968 3.54538 16.3968C4.19806 16.3968 4.72832 16.9125 4.72832 17.548V19.8488C4.72832 20.4843 4.19864 21 3.54595 21C2.89327 21 2.36358 20.4843 2.36358 19.8488Z" fill="#E16D3E"/>
<path d="M21.2723 19.8488V17.548C21.2723 16.9125 21.8019 16.3968 22.4546 16.3968C23.1073 16.3968 23.637 16.9125 23.637 17.548V19.8488C23.637 20.4843 23.1073 21 22.4546 21C21.8019 21 21.2723 20.4843 21.2723 19.8488Z" fill="#E16D3E"/>
<path d="M12.7043 11.5071V1.15122C12.7043 0.515727 13.2339 0 13.8866 0C14.5393 0 15.069 0.515727 15.069 1.15122V11.5071C15.069 12.1426 14.5393 12.6583 13.8866 12.6583C13.2339 12.6583 12.7043 12.1426 12.7043 11.5071Z" fill="#E16D3E"/>
</svg>
