<svg width="22" height="21" viewBox="0 0 22 21" fill="none" xmlns="http://www.w3.org/2000/svg">
<path d="M11 0C11.3811 0 11.7292 0.216678 11.8974 0.558594L14.7646 6.38574L21.1435 7.31055C21.5215 7.36538 21.8353 7.63052 21.9521 7.99414C22.0689 8.35795 21.968 8.75688 21.6924 9.02148L17.0762 13.4521L18.1855 19.8291C18.2503 20.2029 18.0977 20.581 17.792 20.8057C17.4859 21.0304 17.0786 21.0628 16.7412 20.8887L11 17.9248L5.25877 20.8887C4.92136 21.0628 4.51407 21.0304 4.20799 20.8057C3.90228 20.581 3.74962 20.2029 3.81444 19.8291L4.92284 13.4521L0.307602 9.02148C0.031971 8.75688 -0.0689162 8.35795 0.0478361 7.99414C0.164642 7.63052 0.478458 7.36538 0.85643 7.31055L7.23436 6.38574L10.1025 0.558594C10.2708 0.216678 10.6189 0 11 0ZM8.79686 7.74121C8.6513 8.03702 8.36922 8.24275 8.04295 8.29004L3.16893 8.99609L6.69237 12.3789C6.93229 12.6093 7.04233 12.9438 6.98534 13.2715L6.12987 18.1875L10.541 15.9111C10.8287 15.7626 11.1712 15.7626 11.459 15.9111L15.8691 18.1875L15.0146 13.2715C14.9576 12.9438 15.0677 12.6093 15.3076 12.3789L18.8301 8.99609L13.957 8.29004C13.6307 8.24275 13.3487 8.03702 13.2031 7.74121L11 3.26465L8.79686 7.74121Z" fill="#E16D3E"/>
</svg>
