<svg width="300" height="140" viewBox="0 0 300 140" fill="none" xmlns="http://www.w3.org/2000/svg">
<path d="M266 80H34C31.7909 80 30 81.7909 30 84C30 86.2091 31.7909 88 34 88H266C268.209 88 270 86.2091 270 84C270 81.7909 268.209 80 266 80Z" fill="#E4D7D1"/>
<path opacity="0.85" d="M55 28H43C41.3431 28 40 29.3431 40 31V77C40 78.6569 41.3431 80 43 80H55C56.6569 80 58 78.6569 58 77V31C58 29.3431 56.6569 28 55 28Z" fill="#EB9D7E"/>
<path opacity="0.85" d="M79 36H63C61.3431 36 60 37.3431 60 39V77C60 78.6569 61.3431 80 63 80H79C80.6569 80 82 78.6569 82 77V39C82 37.3431 80.6569 36 79 36Z" fill="#B2A8A3"/>
<path opacity="0.85" d="M97 22H87C85.3431 22 84 23.3431 84 25V77C84 78.6569 85.3431 80 87 80H97C98.6569 80 100 78.6569 100 77V25C100 23.3431 98.6569 22 97 22Z" fill="#F6D2C3"/>
<path opacity="0.85" d="M119 32H105C103.343 32 102 33.3431 102 35V77C102 78.6569 103.343 80 105 80H119C120.657 80 122 78.6569 122 77V35C122 33.3431 120.657 32 119 32Z" fill="#3DB2E1"/>
<path opacity="0.85" d="M135 20H127C125.343 20 124 21.3431 124 23V77C124 78.6569 125.343 80 127 80H135C136.657 80 138 78.6569 138 77V23C138 21.3431 136.657 20 135 20Z" fill="#EB9D7E"/>
<path opacity="0.4" d="M200 86C208.837 86 216 83.7614 216 81C216 78.2386 208.837 76 200 76C191.163 76 184 78.2386 184 81C184 83.7614 191.163 86 200 86Z" fill="#E4D7D1"/>
<path opacity="0.6" d="M208 60H192C189.791 60 188 61.7909 188 64V78C188 80.2091 189.791 82 192 82H208C210.209 82 212 80.2091 212 78V64C212 61.7909 210.209 60 208 60Z" fill="#B2A8A3"/>
<path d="M199.999 60C189.999 45 177.999 38 184.999 28" stroke="#66B856" stroke-width="2.5" stroke-linecap="round"/>
<path d="M200 55C210 42 222 36 215 26" stroke="#66B856" stroke-width="2.5" stroke-linecap="round"/>
<path opacity="0.8" d="M183 32C186.866 32 190 29.7614 190 27C190 24.2386 186.866 22 183 22C179.134 22 176 24.2386 176 27C176 29.7614 179.134 32 183 32Z" fill="#66B856"/>
<path opacity="0.8" d="M217 30C220.866 30 224 27.7614 224 25C224 22.2386 220.866 20 217 20C213.134 20 210 22.2386 210 25C210 27.7614 213.134 30 217 30Z" fill="#66B856"/>
<path opacity="0.5" d="M240 80V40L265 20L250 40H255" stroke="#B2A8A3" stroke-width="2" stroke-linecap="round" stroke-linejoin="round"/>
<g opacity="0.6">
<path d="M258 30L260 24L262 30L268 32L262 34L260 40L258 34L252 32L258 30Z" fill="#E16D3E"/>
</g>
<g opacity="0.4">
<path d="M70 20L71 16L72 20L76 21L72 22L71 26L70 22L66 21L70 20Z" fill="#3DB2E1"/>
</g>
</svg>
