<svg width="24" height="24" viewBox="0 0 24 24" fill="none" xmlns="http://www.w3.org/2000/svg">
<path d="M18.25 6.25C18.25 5.71957 18.0391 5.21101 17.6641 4.83594C17.289 4.46087 16.7804 4.25 16.25 4.25H7.75C7.21957 4.25 6.71101 4.46086 6.33594 4.83594C5.96086 5.21101 5.75 5.71957 5.75 6.25V19.4707L10.9141 16.3193L10.917 16.3174C11.2436 16.1196 11.6182 16.0146 12 16.0146C12.3818 16.0146 12.7564 16.1196 13.083 16.3174L13.0859 16.3193L18.25 19.4707V6.25ZM20.25 20.125C20.2465 20.4161 20.1653 20.7015 20.0156 20.9512C19.8659 21.2007 19.6525 21.4058 19.3975 21.5459C19.1423 21.6861 18.8545 21.7566 18.5635 21.749C18.2744 21.7415 17.9925 21.6572 17.7461 21.5059V21.5068L12.0469 18.0283L12 18.0146C11.9836 18.0146 11.9672 18.0198 11.9531 18.0283L6.25488 21.5049C5.17774 22.165 3.75021 21.4137 3.75 20.1133V6.25C3.75 5.18913 4.17173 4.17202 4.92188 3.42188C5.67202 2.67173 6.68913 2.25 7.75 2.25H16.25C17.3109 2.25 18.328 2.67173 19.0781 3.42188C19.8283 4.17202 20.25 5.18913 20.25 6.25V20.125Z" fill="#E16D3E"/>
</svg>
