<svg width="24" height="24" viewBox="0 0 24 24" fill="none" xmlns="http://www.w3.org/2000/svg">
<path d="M18.2929 4.29295C18.6834 3.90243 19.3164 3.90243 19.707 4.29295C20.0975 4.68348 20.0975 5.31649 19.707 5.70702L13.414 12L19.707 18.293C20.0975 18.6835 20.0975 19.3165 19.707 19.707C19.3164 20.0975 18.6834 20.0975 18.2929 19.707L11.9999 13.414L5.70696 19.707C5.31643 20.0975 4.68342 20.0975 4.29289 19.707C3.90237 19.3165 3.90237 18.6835 4.29289 18.293L10.5859 12L4.29289 5.70702C3.90237 5.31649 3.90237 4.68348 4.29289 4.29295C4.68342 3.90243 5.31643 3.90243 5.70696 4.29295L11.9999 10.5859L18.2929 4.29295Z" fill="#5F2E1A"/>
</svg>
