<svg width="24" height="24" viewBox="0 0 24 24" fill="none" xmlns="http://www.w3.org/2000/svg">
<path d="M15.3789 12C15.3789 11.8675 15.3261 11.7403 15.2324 11.6465L9.04297 5.45708C8.65245 5.06655 8.65245 4.43354 9.04297 4.04302C9.43349 3.65249 10.0665 3.65249 10.457 4.04302L16.6475 10.2325V10.2334C17.1156 10.7022 17.3789 11.3375 17.3789 12C17.3789 12.6625 17.1156 13.2979 16.6475 13.7666V13.7676L10.457 19.9571C10.0665 20.3476 9.43349 20.3476 9.04297 19.9571C8.65245 19.5666 8.65245 18.9335 9.04297 18.543L15.2324 12.3526C15.3258 12.2589 15.3789 12.1324 15.3789 12Z" fill="#5F2E1A"/>
</svg>
