<svg width="24" height="24" viewBox="0 0 24 24" fill="none" xmlns="http://www.w3.org/2000/svg">
<path d="M6.62132 12C6.62132 11.3375 6.8846 10.7021 7.35277 10.2334V10.2324L13.5432 4.04296C13.9337 3.65255 14.5668 3.65247 14.9573 4.04296C15.3476 4.43345 15.3476 5.06653 14.9573 5.45702L8.76683 11.6475C8.67367 11.7411 8.62132 11.8678 8.62132 12C8.62132 12.1321 8.67367 12.2589 8.76683 12.3525L14.9573 18.543C15.3476 18.9335 15.3476 19.5665 14.9573 19.957C14.5668 20.3475 13.9337 20.3474 13.5432 19.957L7.35277 13.7676V13.7666C6.8846 13.2978 6.62132 12.6625 6.62132 12Z" fill="#5F2E1A"/>
</svg>
