<svg width="24" height="24" viewBox="0 0 24 24" fill="none" xmlns="http://www.w3.org/2000/svg">
<path d="M2.75 17.75V15.6553C2.75 15.103 3.19772 14.6553 3.75 14.6553C4.30228 14.6553 4.75 15.103 4.75 15.6553V17.75C4.75 18.1478 4.90815 18.5292 5.18945 18.8105C5.47076 19.0919 5.85218 19.25 6.25 19.25H8.34473C8.89701 19.25 9.34473 19.6977 9.34473 20.25C9.34473 20.8023 8.89701 21.25 8.34473 21.25H6.25C5.32174 21.25 4.43177 20.881 3.77539 20.2246C3.11901 19.5682 2.75 18.6783 2.75 17.75ZM19.25 17.75V15.6553C19.25 15.103 19.6977 14.6553 20.25 14.6553C20.8023 14.6553 21.25 15.103 21.25 15.6553V17.75C21.25 18.6783 20.881 19.5682 20.2246 20.2246C19.5682 20.881 18.6783 21.25 17.75 21.25H15.6553C15.103 21.25 14.6553 20.8023 14.6553 20.25C14.6553 19.6977 15.103 19.25 15.6553 19.25H17.75C18.1478 19.25 18.5292 19.0919 18.8105 18.8105C19.0919 18.5292 19.25 18.1478 19.25 17.75ZM2.75 8.34473V6.25C2.75 5.32174 3.11901 4.43177 3.77539 3.77539C4.43177 3.11901 5.32174 2.75 6.25 2.75H8.34473C8.89701 2.75 9.34473 3.19772 9.34473 3.75C9.34473 4.30228 8.89701 4.75 8.34473 4.75H6.25C5.85218 4.75 5.47076 4.90815 5.18945 5.18945C4.90815 5.47076 4.75 5.85218 4.75 6.25V8.34473C4.75 8.89701 4.30228 9.34473 3.75 9.34473C3.19772 9.34473 2.75 8.89701 2.75 8.34473ZM19.25 8.34473V6.25C19.25 5.85218 19.0919 5.47076 18.8105 5.18945C18.5292 4.90815 18.1478 4.75 17.75 4.75H15.6553C15.103 4.75 14.6553 4.30228 14.6553 3.75C14.6553 3.19772 15.103 2.75 15.6553 2.75H17.75C18.6783 2.75 19.5682 3.11901 20.2246 3.77539C20.881 4.43177 21.25 5.32174 21.25 6.25V8.34473C21.25 8.89701 20.8023 9.34473 20.25 9.34473C19.6977 9.34473 19.25 8.89701 19.25 8.34473Z" fill="white"/>
</svg>
