<svg width="24" height="24" viewBox="0 0 24 24" fill="none" xmlns="http://www.w3.org/2000/svg">
<path d="M14.29 14.0822C14.29 13.7261 14.0009 13.4367 13.6445 13.4367H10.6299C10.2736 13.4368 9.98535 13.7262 9.98535 14.0822L9.98438 19.6633H14.29V14.0822ZM21.5 18.469C21.5 19.3157 21.1639 20.1279 20.5654 20.7268C19.9668 21.3257 19.1544 21.6629 18.3076 21.6633H5.69434C3.93005 21.6633 2.5 20.2332 2.5 18.469V12.0139L2.50684 11.7844C2.53616 11.2504 2.66448 10.7255 2.88672 10.2375C3.14066 9.68008 3.51116 9.18329 3.97266 8.78049L3.97363 8.77951L9.90332 3.61447L10.1289 3.43576C10.6714 3.0436 11.3258 2.83029 12 2.83029C12.7705 2.83029 13.5154 3.10877 14.0967 3.61447V3.61545L20.0273 8.78146C20.4887 9.18418 20.8593 9.68119 21.1133 10.2385C21.3671 10.7957 21.4988 11.4007 21.5 12.0129V18.469ZM16.29 19.6633H18.3066L18.4248 19.6574C18.698 19.6301 18.9546 19.5086 19.1504 19.3127C19.3741 19.0888 19.5 18.7855 19.5 18.469V12.0168C19.4994 11.6893 19.4288 11.3657 19.293 11.0676C19.1572 10.7696 18.9596 10.5037 18.7129 10.2883V10.2893L12.7832 5.12326C12.5659 4.93441 12.2879 4.83029 12 4.83029C11.748 4.83029 11.5036 4.91028 11.3008 5.05685L11.2168 5.12326L5.28711 10.2883L5.28613 10.2873C5.03968 10.5026 4.84271 10.7688 4.70703 11.0666C4.5712 11.3648 4.50051 11.6891 4.5 12.0168V18.469C4.5 19.1287 5.03462 19.6633 5.69434 19.6633H7.98438L7.98535 14.0822C7.98535 12.6224 9.16826 11.4368 10.6299 11.4367H13.6445C15.1062 11.4367 16.29 12.6224 16.29 14.0822V19.6633Z" fill="#E16D3E"/>
</svg>
