<svg width="24" height="24" viewBox="0 0 24 24" fill="none" xmlns="http://www.w3.org/2000/svg">
<path d="M21.25 18.25C21.8023 18.25 22.25 18.6977 22.25 19.25C22.25 19.8023 21.8023 20.25 21.25 20.25H2.75C2.19772 20.25 1.75 19.8023 1.75 19.25C1.75 18.6977 2.19772 18.25 2.75 18.25H21.25ZM21.25 11C21.8023 11 22.25 11.4477 22.25 12C22.25 12.5523 21.8023 13 21.25 13H2.75C2.19772 13 1.75 12.5523 1.75 12C1.75 11.4477 2.19772 11 2.75 11H21.25ZM21.25 3.75C21.8023 3.75 22.25 4.19772 22.25 4.75C22.25 5.30228 21.8023 5.75 21.25 5.75H2.75C2.19772 5.75 1.75 5.30228 1.75 4.75C1.75 4.19772 2.19772 3.75 2.75 3.75H21.25Z" fill="#E16D3E"/>
</svg>
