<svg width="24" height="24" viewBox="0 0 24 24" fill="none" xmlns="http://www.w3.org/2000/svg">
<path d="M18.5 6.25C18.5 4.86929 17.3807 3.75 16 3.75H8C6.61929 3.75 5.5 4.86929 5.5 6.25V17.75C5.5 19.1307 6.61929 20.25 8 20.25H16C17.3807 20.25 18.5 19.1307 18.5 17.75V6.25ZM20.5 17.75C20.5 20.2353 18.4853 22.25 16 22.25H8C5.51472 22.25 3.5 20.2353 3.5 17.75V6.25C3.5 3.76472 5.51472 1.75 8 1.75H16C18.4853 1.75 20.5 3.76472 20.5 6.25V17.75Z" fill="#E16D3E"/>
<path d="M12 13.755C12.5523 13.755 13 14.2027 13 14.755C13 15.3073 12.5523 15.755 12 15.755H8.5C7.94772 15.755 7.5 15.3073 7.5 14.755C7.5 14.2027 7.94772 13.755 8.5 13.755H12ZM15.5 9.755C16.0523 9.755 16.5 10.2027 16.5 10.755C16.5 11.3073 16.0523 11.755 15.5 11.755H8.5C7.94772 11.755 7.5 11.3073 7.5 10.755C7.5 10.2027 7.94772 9.755 8.5 9.755H15.5ZM15.5 5.755C16.0523 5.755 16.5 6.20272 16.5 6.755C16.5 7.30728 16.0523 7.755 15.5 7.755H8.5C7.94772 7.755 7.5 7.30728 7.5 6.755C7.5 6.20272 7.94772 5.755 8.5 5.755H15.5Z" fill="#E16D3E"/>
</svg>
