<svg width="24" height="24" viewBox="0 0 24 24" fill="none" xmlns="http://www.w3.org/2000/svg">
<path d="M17.5721 12.0001C17.5722 11.5676 17.6658 11.1402 17.8465 10.7472C18.0273 10.3542 18.2906 10.0044 18.619 9.72279L19.4256 9.03041C19.1408 8.31967 18.7563 7.65408 18.2821 7.05287L17.2821 7.40541C16.8739 7.54905 16.4395 7.60267 16.0087 7.56264C15.5777 7.5226 15.1608 7.38943 14.786 7.17299C14.4113 6.95658 14.0878 6.66189 13.8378 6.30873C13.5878 5.95559 13.4173 5.55236 13.3378 5.12709L13.1415 4.08315C12.3835 3.97376 11.6143 3.97273 10.8563 4.08217L10.6629 5.12611V5.12709C10.5834 5.55237 10.4129 5.95558 10.1629 6.30873C9.91296 6.6619 9.58938 6.95657 9.21471 7.17299C8.83999 7.38941 8.42292 7.52258 7.99205 7.56264C7.61515 7.59766 7.23531 7.5611 6.87291 7.45522L6.71861 7.40541L5.71666 7.05287C5.24273 7.65415 4.85771 8.31969 4.5731 9.03041L5.38072 9.72279H5.3817C5.70996 10.0044 5.97351 10.3542 6.15416 10.7472C6.33473 11.1401 6.4276 11.5677 6.4276 12.0001C6.42758 12.4326 6.33479 12.8601 6.15416 13.2531C5.97357 13.6459 5.7098 13.9949 5.3817 14.2765L5.38072 14.2775L4.5731 14.9679C4.85791 15.6791 5.24328 16.3449 5.71763 16.9464L6.71861 16.5949C7.12675 16.4512 7.56123 16.3976 7.99205 16.4376C8.42284 16.4777 8.84004 16.61 9.21471 16.8263C9.58947 17.0428 9.91292 17.3383 10.1629 17.6915C10.4129 18.0448 10.5834 18.4478 10.6629 18.8732L10.8583 19.9162C11.616 20.0256 12.3847 20.0264 13.1424 19.9171L13.3358 18.8742V18.8732C13.4153 18.4478 13.5867 18.0448 13.8368 17.6915C14.0868 17.3383 14.4103 17.0428 14.785 16.8263C15.1597 16.61 15.5769 16.4777 16.0077 16.4376C16.4386 16.3976 16.8729 16.4512 17.2811 16.5949L18.2821 16.9464C18.7564 16.3449 19.1408 15.679 19.4256 14.9679L18.62 14.2785H18.619C18.2905 13.9969 18.0273 13.6471 17.8465 13.254C17.6657 12.8609 17.5721 12.4329 17.5721 12.0001ZM13.9999 12.0001C13.9999 11.4699 13.7897 10.9611 13.4149 10.5861C13.0398 10.211 12.5303 10.0001 11.9999 10.0001C11.4696 10.0002 10.9608 10.2111 10.5858 10.5861C10.2109 10.9611 9.99986 11.4698 9.99986 12.0001C9.9999 12.5305 10.2108 13.0392 10.5858 13.4142C10.9608 13.7892 11.4696 14 11.9999 14.0001C12.5303 14.0001 13.0398 13.7893 13.4149 13.4142C13.7898 13.0392 13.9998 12.5304 13.9999 12.0001ZM15.9999 12.0001C15.9998 13.0608 15.5789 14.0782 14.829 14.8283C14.0788 15.5784 13.0607 16.0001 11.9999 16.0001C10.9391 16 9.92179 15.5783 9.17174 14.8283C8.4217 14.0782 7.9999 13.0609 7.99986 12.0001C7.99986 10.9394 8.42176 9.92213 9.17174 9.17201C9.92179 8.42196 10.9391 8.00024 11.9999 8.00014C13.0607 8.00014 14.0788 8.42187 14.829 9.17201C15.5789 9.92212 15.9999 10.9394 15.9999 12.0001ZM19.5721 12.0001C19.5721 12.1443 19.6028 12.2871 19.6629 12.4181C19.7232 12.5491 19.8113 12.666 19.9208 12.7599L21.2508 13.8986C21.5538 14.1581 21.6736 14.5732 21.5555 14.9542C21.1119 16.386 20.3517 17.6994 19.3319 18.798C19.061 19.0897 18.643 19.1937 18.2674 19.0617L16.618 18.4816H16.617C16.481 18.4337 16.3359 18.4155 16.1922 18.4289C16.0488 18.4422 15.9098 18.4867 15.785 18.5587C15.6601 18.6309 15.5519 18.7291 15.4686 18.8468C15.3854 18.9644 15.3291 19.0988 15.3026 19.2404L14.9833 20.9591C14.9105 21.3515 14.6116 21.6634 14.2225 21.7521C12.7605 22.0851 11.2421 22.0851 9.78014 21.7521C9.3916 21.6636 9.09275 21.3528 9.01939 20.9611L8.69713 19.2414V19.2404C8.67058 19.0987 8.6134 18.9645 8.53014 18.8468C8.44687 18.7292 8.33945 18.6308 8.21471 18.5587C8.08978 18.4866 7.95015 18.4422 7.8065 18.4289C7.66306 18.4156 7.51858 18.4338 7.38267 18.4816H7.3817L5.73326 19.0617C5.35767 19.1938 4.9397 19.0898 4.66881 18.798C3.64899 17.6994 2.88878 16.386 2.44517 14.9542C2.32716 14.5733 2.44705 14.1581 2.74986 13.8986L4.07896 12.7589C4.18831 12.6651 4.27656 12.549 4.33678 12.4181C4.39698 12.2871 4.42757 12.1443 4.4276 12.0001C4.4276 11.856 4.397 11.7132 4.33678 11.5822C4.27656 11.4512 4.18835 11.3352 4.07896 11.2413V11.2404L2.74986 10.1017C2.44711 9.8422 2.32725 9.42695 2.44517 9.04604C2.88839 7.61449 3.64762 6.30088 4.66685 5.20229L4.77525 5.1017C5.04189 4.88803 5.4035 4.82304 5.73228 4.93861L7.3817 5.51869H7.38267C7.51854 5.56646 7.66309 5.5847 7.8065 5.57143C7.95014 5.55808 8.08978 5.5137 8.21471 5.44154C8.33944 5.36948 8.44686 5.271 8.53014 5.15346C8.61348 5.03571 8.67062 4.90073 8.69713 4.75893L9.01744 3.04018L9.05455 2.89662C9.16607 2.57324 9.43796 2.32569 9.77818 2.24819C11.1487 1.93598 12.5685 1.91647 13.9452 2.18959L14.2206 2.24819L14.3612 2.29115C14.6799 2.41521 14.9171 2.6963 14.9813 3.0392L15.3036 4.75893C15.3301 4.90073 15.3862 5.03571 15.4696 5.15346C15.5529 5.2712 15.6611 5.3694 15.786 5.44154C15.9108 5.51362 16.0497 5.55803 16.1932 5.57143C16.3368 5.58477 16.482 5.56655 16.618 5.51869L18.2674 4.93861C18.6429 4.80655 19.061 4.90973 19.3319 5.20131C20.3518 6.29994 21.1119 7.61412 21.5555 9.04604C21.6735 9.427 21.5536 9.84215 21.2508 10.1017L19.9208 11.2413C19.8114 11.3351 19.7232 11.4513 19.6629 11.5822C19.6027 11.7131 19.5722 11.856 19.5721 12.0001Z" fill="#5F2E1A"/>
</svg>
