<svg width="24" height="24" viewBox="0 0 24 24" fill="none" xmlns="http://www.w3.org/2000/svg">
<path d="M20 19C20 17.8954 19.1046 17 18 17C17.3905 17 16.8454 17.2732 16.4785 17.7031C16.4577 17.8034 16.4217 17.9023 16.3682 17.9961C16.3075 18.1022 16.2292 18.1915 16.1406 18.2656C16.0507 18.4931 16 18.7405 16 19C16 20.1046 16.8954 21 18 21C19.1046 21 20 20.1046 20 19ZM8 12C8 11.7404 7.94841 11.4932 7.8584 11.2656C7.77008 11.1916 7.69235 11.102 7.63184 10.9961C7.57823 10.9023 7.54134 10.8035 7.52051 10.7031C7.15368 10.2734 6.60925 10 6 10C4.89543 10 4 10.8954 4 12C4 13.1046 4.89543 14 6 14C6.60952 14 7.15367 13.7259 7.52051 13.2959C7.54138 13.1959 7.57839 13.0974 7.63184 13.0039C7.69246 12.8978 7.76987 12.8075 7.8584 12.7334C7.94819 12.506 8 12.2593 8 12ZM20 5C20 3.89543 19.1046 3 18 3C16.8954 3 16 3.89543 16 5C16 5.25915 16.0509 5.50614 16.1406 5.7334C16.2294 5.80756 16.3074 5.89759 16.3682 6.00391C16.4216 6.09737 16.4576 6.19592 16.4785 6.2959C16.8454 6.72618 17.3903 7 18 7C19.1046 7 20 6.10457 20 5ZM22 5C22 7.20914 20.2091 9 18 9C16.8989 9 15.902 8.5548 15.1787 7.83496L9.84082 10.8848C9.94346 11.2389 10 11.6128 10 12C10 12.3869 9.9433 12.7604 9.84082 13.1143L15.1787 16.1641C15.902 15.4445 16.8992 15 18 15C20.2091 15 22 16.7909 22 19C22 21.2091 20.2091 23 18 23C15.7909 23 14 21.2091 14 19C14 18.6129 14.0556 18.2388 14.1582 17.8848L8.82031 14.835C8.09704 15.5545 7.10084 16 6 16C3.79086 16 2 14.2091 2 12C2 9.79086 3.79086 8 6 8C7.1006 8 8.09708 8.44479 8.82031 9.16406L14.1582 6.11426C14.0558 5.76049 14 5.38678 14 5C14 2.79086 15.7909 1 18 1C20.2091 1 22 2.79086 22 5Z" fill="#5F2E1A"/>
</svg>
