<svg width="24" height="24" viewBox="0 0 24 24" fill="none" xmlns="http://www.w3.org/2000/svg">
<path d="M8.91016 11.542C9.30067 11.1515 9.93369 11.1515 10.3242 11.542C10.7147 11.9325 10.7147 12.5655 10.3242 12.956L7.15625 16.125H18.7588C19.3111 16.125 19.7588 16.5727 19.7588 17.125C19.7588 17.6773 19.3111 18.125 18.7588 18.125H7.1582L10.3252 21.2929C10.7157 21.6835 10.7157 22.3165 10.3252 22.707C9.93467 23.0975 9.30165 23.0975 8.91113 22.707L5.09668 18.8935L5.09766 18.8926C4.86545 18.6605 4.68043 18.3852 4.55469 18.082C4.44281 17.8121 4.38281 17.5247 4.37012 17.2334C4.36613 17.1971 4.36328 17.1604 4.36328 17.123C4.36328 16.4844 4.60849 15.8427 5.0957 15.3554L8.91016 11.542ZM13.6738 1.79197C14.0643 1.40151 14.6974 1.40163 15.0879 1.79197L18.9023 5.60545C19.3896 6.09266 19.6348 6.7344 19.6348 7.37302C19.6348 8.01158 19.3903 8.65462 18.9023 9.14255L15.0879 12.956C14.6974 13.3464 14.0643 13.3465 13.6738 12.956C13.2836 12.5656 13.2836 11.9324 13.6738 11.542L16.8418 8.374H5.24023C4.68795 8.374 4.24023 7.92628 4.24023 7.374C4.24023 6.82172 4.68795 6.374 5.24023 6.374H16.8418L13.6738 3.20603C13.2836 2.81555 13.2836 2.18245 13.6738 1.79197Z" fill="#5F2E1A"/>
</svg>
