<svg width="32" height="32" viewBox="0 0 32 32" fill="none" xmlns="http://www.w3.org/2000/svg">
<path d="M3 23.2668V22.0194C3.00034 21.2833 3.59716 20.686 4.33333 20.686C5.0695 20.686 5.66633 21.2833 5.66667 22.0194V23.2668C5.66669 24.08 5.99007 24.8597 6.5651 25.4347C7.14015 26.0098 7.91984 26.3331 8.73307 26.3332H23.2669C24.0802 26.3331 24.8598 26.0098 25.4349 25.4347C26.0099 24.8597 26.3333 24.08 26.3333 23.2668V22.0194C26.3337 21.2833 26.9305 20.686 27.6667 20.686C28.4028 20.686 28.9997 21.2833 29 22.0194V23.2668C29 24.7873 28.3954 26.245 27.3203 27.3202C26.2452 28.3953 24.7874 28.9998 23.2669 28.9998H8.73307C7.21259 28.9998 5.75483 28.3953 4.67969 27.3202C3.60455 26.245 3.00003 24.7873 3 23.2668ZM14.6667 21.798V7.55192L9.10026 13.1183C8.57956 13.639 7.73554 13.639 7.21484 13.1183C6.69422 12.5976 6.69417 11.7536 7.21484 11.2329L13.6419 4.80583C14.2557 4.19202 15.0534 3.87012 15.8581 3.83578C15.9054 3.8307 15.9532 3.82662 16.0013 3.82666C16.4393 3.82706 16.8729 3.9138 17.2773 4.08187C17.6815 4.24987 18.0489 4.49594 18.3581 4.80583L24.7852 11.2329C25.3058 11.7536 25.3058 12.5976 24.7852 13.1183C24.2645 13.639 23.4204 13.639 22.8997 13.1183L17.3333 7.55192V21.798C17.3333 22.5344 16.7364 23.1313 16 23.1313C15.2636 23.1313 14.6667 22.5344 14.6667 21.798Z" fill="#5F2E1A"/>
</svg>
